<svg
  class="icon"
  style="width: 1em; height: 1em; vertical-align: middle; fill: currentColor; overflow: hidden"
  viewBox="0 0 1024 1024"
  version="1.1"
  xmlns="http://www.w3.org/2000/svg"
  p-id="600"
>
  <path d="M660.8 .9l233.8-156.3 14.8 25.2-233 149.4" fill="#908C8C" p-id="601"></path>
  <path d="M679.1 448.4l-5.4-8.4 229-146.8-9.7-16.5L663.5 430l-5.5-8.3 238.2-159.2 20 33.9z" p-id="602"></path>
  <path d="M859.3425 229.8L640.5 399.2c-5.5-5.9-11.2-11.5-17.2-16.9l219-176.3 17 23.8z" fill="#908C8C" p-id="603"></path>
  <path
    d="M639.9 406l-3.1-3.3c-5.5-5.9-11.2-11.4-16.9-16.6l-4.4-3.9 227.8-183.4 22.8 32L639.9 406z m-9-23.4c3.4 3.2 6.7 6.5 10.1 9.9l211.5-163.7-11.1-15.5-210.5 169.3z"
    p-id="604"
  ></path>
  <path
    d="M717.4 593.9v1.5H147.7v-1.5c0-157.3 127.5-284.8 284.8-284.8 73.3 0 140.2 27.7 190.7 73.3 6 5.4 11.7 11 17.2 16.9 7.7 8.2 14.8 16.8 21.5 25.8 34.9 47.2 55.5 105.6 55.5 168.8z"
    fill="#FFFFFF"
    p-id="605"
  ></path>
  <path
    d="M722.1 600.5H143l-0.3-4.7V594c0-77.4 30.2-150.2 84.9-204.9s127.5-84.9 204.9-84.9c71.9 0 140.8 26.5 194.1 74.6 6 5.4 11.9 11.1 17.5 17.2 7.7 8.2 15 17 21.9 26.3 36.9 50.1 56.4 109.5 56.4 171.8v1.8l-0.3 4.6z m-569.4-10h559.6c-0.7-59-19.5-115.1-54.4-162.4-6.6-8.9-13.7-17.5-21.1-25.4-5.5-5.8-11.1-11.4-16.9-16.6-51.4-46.4-118-72-187.4-72-153.1 0-277.9 123.6-279.8 276.4z"
    p-id="606"
  ></path>
  <path
    d="M762.6 597c0 147.8-97.2 273-231.2 315H333.7c-134-42-231.2-167.2-231.2-315v-1.5h660c0.1 0.4 0.1 0.9 0.1 1.5z"
    fill="#73B9C5"
    p-id="607"
  ></path>
  <path
    d="M532.2 916.9H332.9l-0.7-0.2c-33.6-10.5-65.3-26.3-94.1-46.9-28.4-20.3-53.4-44.8-74.3-72.7-43.4-58.2-66.3-127.4-66.3-200.2v-1.8l0.3-4.7h669.3l0.4 4.6c0.1 0.7 0.1 1.3 0.1 1.9 0 72.8-22.9 142-66.3 200.2-20.9 28-45.9 52.5-74.3 72.7-28.8 20.5-60.4 36.3-94.1 46.9l-0.7 0.2z m-197.8-10h196.2c134.7-42.6 225.5-165.3 226.9-306.5h-650c1.5 141.2 92.3 264 226.9 306.5z"
    p-id="608"
  ></path>
</svg>
